<svg id="Group_7" data-name="Group 7" xmlns="http://www.w3.org/2000/svg" xmlns:xlink="http://www.w3.org/1999/xlink" width="203.946" height="75.417" viewBox="0 0 203.946 75.417">
  <defs>
    <clipPath id="clip-path">
      <rect id="Rectangle_2" data-name="Rectangle 2" width="66.959" height="75.417" fill="#fff"/>
    </clipPath>
    <clipPath id="clip-path-2">
      <rect id="Rectangle_3" data-name="Rectangle 3" width="203.946" height="75.417" fill="none"/>
    </clipPath>
  </defs>
  <g id="Group_4" data-name="Group 4" transform="translate(35.064)">
    <g id="Group_3" data-name="Group 3" clip-path="url(#clip-path)">
      <path id="Path_2" data-name="Path 2" d="M130.516,70.838c-.788.409-1.06,1.816-1.557,2.778-1.761-1.617-1.815-2.428-.312-6.215,2.188.655,4.712.64,5.152,3.614-1.118-.1-2.445-.611-3.283-.177M111.194,38.092c.711,1.242,1.528,2.423,2.364,3.73a4.71,4.71,0,0,1-5.72-2.567,5,5,0,0,1-.254-3.468,4.966,4.966,0,0,1,.32-.826,5,5,0,0,1,1.745-1.969,4.99,4.99,0,0,1,5.808.25,5.021,5.021,0,0,1,.646.607c1.682,1.8,1.707,4.412-.075,6.71-.8-1.389-1.51-2.625-2.227-3.86-.484-.835-1.146-1.3-2.106-.793a1.4,1.4,0,0,0-.681,1.914,1.412,1.412,0,0,0,.178.27Zm8.387-4.4a7.684,7.684,0,0,0-.547-1,7.673,7.673,0,0,0-3.449-2.9,7.658,7.658,0,0,0-3.347-.6,7.966,7.966,0,0,0-3.861,1.036,8.069,8.069,0,0,0-.682.433,7.993,7.993,0,0,0-1.738,1.679A8.036,8.036,0,0,0,105.5,33q-.211.345-.387.71t-.313.745a7.994,7.994,0,0,0-.394,1.567,7.979,7.979,0,0,0-.077.805,7.868,7.868,0,0,0,0,.809,8,8,0,0,0,.5,2.366,8,8,0,0,0,.718,1.447,7.959,7.959,0,0,0,.464.662,8.078,8.078,0,0,0,.529.611q.28.293.588.555a8.03,8.03,0,0,0,1.328.917q.355.195.726.353a7.957,7.957,0,0,0,2.34.6,7.84,7.84,0,0,0,.807.039,7.977,7.977,0,0,0,.806-.044,2.071,2.071,0,0,1,.792-.061,2.085,2.085,0,0,1,1.592,1.078,2.123,2.123,0,0,1,.156.367c.8,1.565,1.76,3.041,2.714,4.659-6.96,3.413-16.061.009-19.671-7.022q-.343-.66-.62-1.352T97.617,41.4q-.209-.715-.346-1.447t-.2-1.474q-.066-.742-.06-1.487t.086-1.485q.078-.741.229-1.47t.371-1.441q.221-.711.509-1.4t.643-1.342q.355-.655.771-1.272t.89-1.191q.474-.574,1-1.1t1.1-1q.577-.471,1.2-.883t1.276-.762q.66-.352,1.352-.639t1.408-.5q.716-.218,1.45-.366t1.479-.224q.744-.076,1.493-.079t1.494.066q.746.069,1.481.21t1.453.353q.718.211,1.412.492t1.358.626q.664.346,1.291.755t1.212.877q.585.468,1.122.99t1.021,1.094q.484.572.911,1.188t.791,1.271c3.862,6.847,1.693,16.134-4.831,20.028-1.064-1.952-2.176-3.876-3.141-5.873-.15-.313.277-1.03.6-1.421a7.748,7.748,0,0,0,1.6-7.725,7.819,7.819,0,0,0-.467-1.085Zm3.125,18.792a18.129,18.129,0,0,0,8.021-13.841,17.789,17.789,0,0,0-3.615-12.464q-.5-.661-1.048-1.276t-1.158-1.176q-.605-.562-1.258-1.068T122.3,21.7q-.7-.445-1.428-.826t-1.5-.694q-.763-.314-1.553-.557t-1.6-.416q-.808-.172-1.627-.271t-1.645-.125q-.825-.025-1.649.024t-1.64.172q-.817.123-1.619.318t-1.584.462q-.782.266-1.536.6t-1.476.737q-.722.4-1.4.867t-1.321.989q-.639.524-1.227,1.1T98.373,25.3q-.535.63-1.011,1.305t-.89,1.39q-.414.715-.762,1.465t-.628,1.528q-.28.777-.489,1.577t-.346,1.615q-.137.815-.2,1.639t-.053,1.651q.011.827.095,1.649t.242,1.634q.157.812.387,1.606t.529,1.564c3.415,8.509,13.243,14.386,24.251,10.366l3.719,6.848c-10.3,5.242-25.757,2.269-33.333-10.2a26.068,26.068,0,0,1-1.27-2.29q-.577-1.176-1.035-2.4a26.255,26.255,0,0,1-1.326-5.059q-.2-1.295-.278-2.6a26.172,26.172,0,0,1-.017-2.619q.056-1.31.244-2.607t.5-2.57q.316-1.272.757-2.507t1-2.418a26.193,26.193,0,0,1,4.375-6.49q.887-.965,1.865-1.836t2.039-1.64a26.064,26.064,0,0,1,2.192-1.428c13.161-7.521,29.433-3.1,36.581,10.058q.608,1.09,1.11,2.231t.892,2.327q.39,1.186.666,2.4t.435,2.455q.159,1.238.2,2.485t-.039,2.493q-.079,1.245-.276,2.477t-.511,2.44q-.314,1.207-.741,2.38t-.964,2.3q-.537,1.126-1.179,2.2t-1.382,2.073q-.741,1-1.574,1.932T130.4,56.482q-.918.844-1.911,1.6t-2.055,1.407ZM137.2,70.6a8.493,8.493,0,0,0-.427-1.15,8.526,8.526,0,0,0-1.324-2.058,8.488,8.488,0,0,0-5.286-2.842c-.917-.151-1.7-1.111-2.813-1.885,14.905-9.462,18.359-27.766,9.971-41.128q-.734-1.155-1.571-2.236t-1.771-2.082q-.933-1-1.954-1.91T129.9,13.588q-1.1-.812-2.27-1.519t-2.4-1.3q-1.23-.6-2.51-1.077t-2.6-.841q-1.319-.36-2.665-.6t-2.708-.35q-1.362-.113-2.729-.1t-2.726.153q-1.36.14-2.7.4t-2.653.651q-1.311.387-2.581.892T98.874,11.03q-1.224.622-2.384,1.358t-2.247,1.575q-1.086.841-2.089,1.78T90.241,17.71q-.91,1.029-1.72,2.139T87.008,22.14q-.7,1.181-1.291,2.423T84.658,27.1q-.469,1.291-.816,2.622t-.567,2.687q-.221,1.358-.313,2.729t-.056,2.746q.036,1.374.2,2.739t.457,2.708q.292,1.343.709,2.653t.954,2.575q.292.683.617,1.351t.683,1.318q.358.651.748,1.283t.811,1.243q.421.612.872,1.2t.93,1.157q.479.567.987,1.108t1.041,1.058q.534.517,1.092,1.005t1.141.949q.582.46,1.186.891t1.229.831q.625.4,1.269.768t1.306.7q.662.335,1.34.638t1.369.57q.691.268,1.4.5t1.419.431q.715.2,1.439.36t1.455.288q.732.125,1.468.214t1.476.141q.739.052,1.482.067t1.483-.007q.741-.022,1.481-.081t1.475-.155q.736-.1,1.466-.228t1.452-.3q.722-.169,1.436-.373t1.415-.444q.7-.24,1.391-.515t1.364-.583a2.907,2.907,0,0,1,.6,3.194,23.356,23.356,0,0,0-1.077,3.683,2.583,2.583,0,0,0,.141,1.641c.963,1.9,1.964,3.793,3.1,5.6.4.634,1.3,1.475,1.813,1.376.616-.119,1.222-1.063,1.539-1.781a30.381,30.381,0,0,0,1.115-3.565c1.756.423,3.241.871,4.759,1.121,1.441.238,2.138-.716,1.57-2.046-.378-.882-.975-1.674-1.3-2.569" transform="translate(-79.008 -4.136)" fill="#fff"/>
    </g>
  </g>
  <g id="Group_6" data-name="Group 6">
    <g id="Group_5" data-name="Group 5" clip-path="url(#clip-path-2)">
      <path id="Path_19" data-name="Path 19" d="M24.64-12.88a6.47,6.47,0,0,1-6.72-6.72,6.47,6.47,0,0,1,6.72-6.72c3.92,0,7.28,3.08,7.28,3.08l6.72-10.64s-5.04-6.16-15.68-6.16A20.265,20.265,0,0,0,2.24-19.6,20.265,20.265,0,0,0,22.96.84C34.16.84,39.2-5.88,39.2-5.88V-19.6H25.76v6.72Z" transform="translate(0 51.585)" fill="#fff"/>
      <text id="_" data-name=" " transform="translate(41.81 51.585)" fill="#80744a" font-size="56" font-family="PeaceSans, Peace Sans"><tspan x="0" y="0"> </tspan></text>
      <text id="_2" data-name=" " transform="translate(53.109 51.585)" fill="#80744a" font-size="56" font-family="PeaceSans, Peace Sans"><tspan x="0" y="0"> </tspan></text>
      <text id="_3" data-name=" " transform="translate(64.409 51.585)" fill="#80744a" font-size="56" font-family="PeaceSans, Peace Sans"><tspan x="0" y="0"> </tspan></text>
      <text id="_4" data-name=" " transform="translate(75.709 51.585)" fill="#80744a" font-size="56" font-family="PeaceSans, Peace Sans"><tspan x="0" y="0"> </tspan></text>
      <path id="Path_18" data-name="Path 18" d="M31.08-39.2H12.04L.56,0H16.8l1.12-5.6H25.2L26.32,0H42.56S31.136-38.976,31.08-39.2ZM19.6-14.56l1.96-10.08,1.96,10.08Z" transform="translate(87.008 51.585)" fill="#fff"/>
      <path id="Path_16" data-name="Path 16" d="M17.92-39.2H3.36V0H33.04V-12.88H17.92Z" transform="translate(130.513 51.585)" fill="#fff"/>
      <path id="Path_17" data-name="Path 17" d="M35.28-26.88V-39.2H3.92v12.32H16.8L2.8-12.32V0H35.84V-12.32H21.28Z" transform="translate(164.978 51.585)" fill="#fff"/>
    </g>
  </g>
</svg>
