<svg xmlns="http://www.w3.org/2000/svg" width="702.075" height="693.071" viewBox="0 0 702.075 693.071">
  <path id="Path_4" data-name="Path 4" d="M28.486,496.578h-.8C10.9,496.552.028,495.7-.08,495.687l.16-1.994c.107.009,10.922.859,27.642.884a490.883,490.883,0,0,0,64.718-4.115c45-6.065,104.3-22,131.294-63.5A104.2,104.2,0,0,0,239.706,384q.585-4.259.841-8.578-3.025.733-6.036,1.393a225.531,225.531,0,0,1-47.449,5.6q-4.534,0-8.81-.253a93.678,93.678,0,0,1-20.7-3.307c-5.956-1.756-10.653-4.118-13.961-7.019a52.373,52.373,0,0,1-12.46-15.793,45.712,45.712,0,0,1-4.809-18.664c-.415-9.605,1.97-19.86,7.089-30.48,5.265-10.923,13.394-22.155,24.16-33.385a26.806,26.806,0,0,1,9.853-6.675,25.071,25.071,0,0,1,11.06-1.468,35.257,35.257,0,0,1,11.567,3.18,56.2,56.2,0,0,1,11.538,7.2c8.312,6.592,16.178,15.914,22.747,26.958a130.886,130.886,0,0,1,8.863,17.943,134.243,134.243,0,0,1,6.3,20.025,127.182,127.182,0,0,1,3.057,21.435c.2,3.593.234,7.177.108,10.729,29.772-7.53,78.845-25.047,123.627-64.416,18.727-16.464,36.384-44.086,52.479-82.1,12.9-30.474,24.827-67.637,35.441-110.459C463.661,77.751,470.3,42.123,474.2,18.947c4.23-25.109,6.25-41.406,6.27-41.568l1.985.245c-.02.162-2.046,16.5-6.283,41.656-2.488,14.77-5.241,29.646-8.182,44.216-3.676,18.213-7.659,35.994-11.837,52.851-10.639,42.923-22.6,80.187-35.541,110.757a341.1,341.1,0,0,1-24.177,47.5,197.139,197.139,0,0,1-13.809,19.508,130.426,130.426,0,0,1-15.015,15.813,293.27,293.27,0,0,1-66.244,43.639,312.086,312.086,0,0,1-34.056,14.02c-8.211,2.823-16.5,5.284-24.74,7.344-.168,3.15-.464,6.272-.887,9.35a106.182,106.182,0,0,1-16.278,43.782,98.3,98.3,0,0,1-11.316,14.24,114.59,114.59,0,0,1-13.688,12.14A156.584,156.584,0,0,1,167.66,473.08c-20.894,8.965-46.124,15.482-74.989,19.37-11.33,1.526-23.255,2.646-35.445,3.328C47.742,496.309,38.077,496.578,28.486,496.578ZM176.238,267.266a23.3,23.3,0,0,0-17.222,7.633c-20.9,21.8-31.517,43.38-30.694,62.395.552,12.752,6.133,23.868,16.59,33.039,7.587,6.655,22.76,10.073,41.971,10.073a224.72,224.72,0,0,0,47.2-5.541c2.053-.45,4.247-.956,6.569-1.525a121.467,121.467,0,0,0-3.1-32.217c-5.95-25.876-20.206-50.325-37.2-63.806C191.916,270.628,183.681,267.266,176.238,267.266Z" transform="matrix(-0.574, 0.819, -0.819, -0.574, 683.499, 284.891)" fill="#827855"/>
</svg>
