<?xml version="1.0" encoding="UTF-8"?>
<svg id="Laag_2" data-name="Laag 2" xmlns="http://www.w3.org/2000/svg" viewBox="0 0 1920.92 363.95">
  <defs>
    <style>
      .cls-1 {
        fill: none;
        stroke: #827855;
        stroke-width: 2px;
      }
    </style>
  </defs>
  <g id="Laag_1-2" data-name="Laag 1">
    <path id="Path_7" data-name="Path 7" class="cls-1" d="m1919.98,107.51s-19.94,56.54-156.21,32.43c-123.24-21.8-247.4-56.72-270.03-63.2-2.49-.71-5.01-1.34-7.55-1.86l-238.59-49.58c-8.69-1.8-17.09-4.73-25.06-8.63-21.02-10.29-72.75-29.02-130.47-.78-45.89,22.46-46.2,58.37-39.43,82.99,3.3,12.03,8.95,23.28,16.33,33.33,25.71,34.97,144.94,202.38,89.51,225.79-44.24,18.69-172.04-19.96-241.5-43.59-29.99-10.2-62.32-11.38-92.99-3.46-181.45,46.86-262.09,19.89-300.76-20.14-25.83-26.75-78.81-106.82-131.92-108.06-6.34-.15-16.51-.39-27.35,5.06-24.38,12.25-19.55,36.91-45.56,61.56-16.48,15.62-34.6,21.07-46.21,24.55-17.37,5.22-35.06,10.53-45.16,1.98-11.54-9.76-1.03-27.31-13.34-48.16-2.49-4.21-8.52-12.99-26.93-23.04C138.84,178.54,6.87,143.58.25,141.84"/>
  </g>
</svg>