<svg id="Group_2" data-name="Group 2" xmlns="http://www.w3.org/2000/svg" xmlns:xlink="http://www.w3.org/1999/xlink" width="739.354" height="590.049" viewBox="0 0 739.354 590.049">
  <defs>
    <clipPath id="clip-path">
      <rect id="Rectangle_1" data-name="Rectangle 1" width="739.354" height="590.049" fill="#bcb9a8"/>
    </clipPath>
  </defs>
  <g id="Group_1" data-name="Group 1" clip-path="url(#clip-path)">
    <path id="Path_1" data-name="Path 1" d="M18.8,118.226c-20.636,33.91-11.83,77.18-.34,115.058s25.077,78.491,12.221,115.942c-3.885,11.325-10.154,22.1-11.06,34.015C17.888,406,36.843,426.2,58.509,434.322s45.577,7.03,68.75,6.582,47.435.118,67.822,10.972c41.374,22.031,51.716,76.907,86.979,107.563,26.781,23.284,65.347,29.69,100.764,25.033s68.63-19.1,101.284-33.375c48.368-21.155,97.1-42.514,140.2-72.752,40.072-28.116,75.41-64.7,93.951-109.575s18.36-98.723-7.838-139.726c-21.5-33.637-60.114-60.671-61.269-100.394-.681-23.342,12.5-46.221,8.182-69.184C647.46,7.02,571.513-.863,529.1,4.924c-50.747,6.924-93.136,35.067-128.558,70.059-22.918,22.632-44.591,50.957-78.966,55.517-51.223,6.8-103.442-29.994-150.248-44.961C120.894,69.4,50.162,66.687,18.8,118.226" transform="translate(2.236 0.903)" fill="#bcb9a8"/>
  </g>
</svg>
